<svg width="111" height="133" viewBox="0 0 111 133" fill="none" xmlns="http://www.w3.org/2000/svg">
<path d="M33.2027 87.3869C33.9047 102.392 43.1706 107.217 57.2449 107.217C67.2127 107.217 77.5315 103.66 77.5315 94.1848C77.5315 82.9137 59.3507 80.7651 41.0296 75.5874C22.8488 70.4097 3.79059 62.1676 3.79059 38.7799C3.79059 10.8837 31.7637 0 55.6304 0C80.936 0 106.382 12.3279 106.558 41.1046H73.425C73.9515 29.4812 63.1062 25.7476 52.9278 25.7476C45.8029 25.7476 36.888 28.2484 36.888 36.6666C36.888 46.4936 55.2443 48.29 73.7409 53.4677C92.0972 58.6454 110.594 67.2397 110.594 90.2751C110.594 122.609 83.1823 133 55.2092 133C27.2361 133 0.17549 120.144 0 87.4221H33.1325L33.2027 87.3869Z" fill="#A1F480" fill-opacity="0.08"/>
</svg>
