<svg width="60" height="71" viewBox="0 0 60 71" fill="none" xmlns="http://www.w3.org/2000/svg">
<path d="M7.4 10.72H0V14.02H7.4V10.72Z" fill="#A1F480"/>
<path d="M17.34 35.84H30.3L22.68 43.46H0V70.72L3.3 67.42L10.72 60L14.02 56.7V53.42V52.12V49.62H10.72V55.42L3.3 62.84V46.76H23.96L38.18 32.54H17.34V35.84Z" fill="#A1F480"/>
<path d="M17.34 10.72V14.02H52.12L44.52 21.62H14.22L0 35.84H7.88V32.54L10.72 29.68L15.16 25.24L15.48 24.92H45.8L60 10.72H17.34Z" fill="#A1F480"/>
<path d="M14.02 0H10.72V21.72L14.02 18.44V0Z" fill="#A1F480"/>
<path d="M10.72 33.08V40.62H14.02V29.78L10.72 33.08Z" fill="#A1F480"/>
</svg>
