<svg width="60" height="60" viewBox="0 0 60 60" fill="none" xmlns="http://www.w3.org/2000/svg">
<path fill-rule="evenodd" clip-rule="evenodd" d="M56.875 15C56.875 11.85 55.625 8.83 53.3975 6.6025C51.17 4.375 48.15 3.125 45 3.125H15C11.85 3.125 8.83 4.375 6.6025 6.6025C4.375 8.83 3.125 11.85 3.125 15V45C3.125 48.15 4.375 51.17 6.6025 53.3975C8.83 55.625 11.85 56.875 15 56.875H45C48.15 56.875 51.17 55.625 53.3975 53.3975C55.625 51.17 56.875 48.15 56.875 45V15ZM31.22 20.4075L25.22 38.4075C24.895 39.39 25.425 40.4525 26.4075 40.78C27.39 41.105 28.4525 40.575 28.78 39.5925L34.78 21.5925C35.105 20.61 34.575 19.5475 33.5925 19.22C32.61 18.895 31.5475 19.425 31.22 20.4075ZM37.675 25.325L42.3475 30L37.675 34.675C36.9425 35.405 36.9425 36.595 37.675 37.325C38.405 38.0575 39.595 38.0575 40.325 37.325L46.325 31.325C47.0575 30.5925 47.0575 29.4075 46.325 28.675L40.325 22.675C39.595 21.9425 38.405 21.9425 37.675 22.675C36.9425 23.405 36.9425 24.595 37.675 25.325ZM19.675 22.675L13.675 28.675C12.9425 29.4075 12.9425 30.5925 13.675 31.325L19.675 37.325C20.405 38.0575 21.595 38.0575 22.325 37.325C23.0575 36.595 23.0575 35.405 22.325 34.675L17.6525 30L22.325 25.325C23.0575 24.595 23.0575 23.405 22.325 22.675C21.595 21.9425 20.405 21.9425 19.675 22.675Z" fill="black"/>
</svg>
