<svg width="30" height="30" viewBox="0 0 30 30" fill="none" xmlns="http://www.w3.org/2000/svg">
<path fill-rule="evenodd" clip-rule="evenodd" d="M15 0C11.0218 0 7.20644 1.58035 4.3934 4.3934C1.58035 7.20644 0 11.0218 0 15C0 18.9782 1.58035 22.7936 4.3934 25.6066C7.20644 28.4196 11.0218 30 15 30C18.9782 30 22.7936 28.4196 25.6066 25.6066C28.4196 22.7936 30 18.9782 30 15C30 11.0218 28.4196 7.20644 25.6066 4.3934C22.7936 1.58035 18.9782 0 15 0ZM13.8 9.6L19.2 14.9976L13.2072 21.1037C12.9752 21.3401 12.5955 21.3439 12.3587 21.1121C12.1216 20.88 12.1178 20.4994 12.3503 20.2626L17.5176 14.9976L12.3397 9.72629C12.1124 9.49494 12.1161 9.12309 12.3478 8.89624C12.5866 8.66245 12.9721 8.67516 13.195 8.92416L13.8 9.6Z" fill="#1D1D1D"/>
</svg>
