<svg width="50" height="50" viewBox="0 0 50 50" fill="none" xmlns="http://www.w3.org/2000/svg">
<path fill-rule="evenodd" clip-rule="evenodd" d="M25 0C31.6304 0 37.9893 2.63392 42.6777 7.32233C47.3661 12.0107 50 18.3696 50 25C50 31.6304 47.3661 37.9893 42.6777 42.6777C37.9893 47.3661 31.6304 50 25 50C18.3696 50 12.0107 47.3661 7.32233 42.6777C2.63392 37.9893 0 31.6304 0 25C0 18.3696 2.63392 12.0107 7.32233 7.32233C12.0107 2.63392 18.3696 0 25 0ZM27 16L18 24.996L27.988 35.1728C28.3747 35.5668 29.0076 35.5731 29.4021 35.1869C29.7973 34.7999 29.8037 34.1657 29.4162 33.771L20.804 24.996L29.4339 16.2105C29.8126 15.8249 29.8066 15.2052 29.4204 14.8271C29.0224 14.4374 28.3798 14.4586 28.0083 14.8736L27 16Z" fill="#1D1D1D"/>
</svg>
