<svg width="50" height="50" viewBox="0 0 50 50" fill="none" xmlns="http://www.w3.org/2000/svg">
<circle cx="25" cy="25" r="25" fill="#E3E3E3"/>
<path fill-rule="evenodd" clip-rule="evenodd" d="M13.1818 26.182H36.8182C37.4705 26.182 38 25.6525 38 25.0002C38 24.3478 37.4705 23.8184 36.8182 23.8184H13.1818C12.5295 23.8184 12 24.3478 12 25.0002C12 25.6525 12.5295 26.182 13.1818 26.182Z" fill="#1D1D1D"/>
<path fill-rule="evenodd" clip-rule="evenodd" d="M26.1816 36.8182V13.1818C26.1816 12.5295 25.6522 12 24.9998 12C24.3474 12 23.818 12.5295 23.818 13.1818V36.8182C23.818 37.4705 24.3474 38 24.9998 38C25.6522 38 26.1816 37.4705 26.1816 36.8182Z" fill="#1D1D1D"/>
</svg>
