<svg width="20" height="20" viewBox="0 0 20 20" fill="none" xmlns="http://www.w3.org/2000/svg">
<circle cx="10" cy="10" r="10" fill="#A1F480"/>
<path d="M10 5.081C11.602 5.081 11.792 5.087 12.4245 5.116C13.0785 5.146 13.752 5.295 14.2285 5.7715C14.7095 6.2525 14.854 6.9195 14.884 7.5755C14.913 8.208 14.919 8.398 14.919 10C14.919 11.602 14.913 11.792 14.884 12.4245C14.8545 13.075 14.702 13.755 14.2285 14.2285C13.7475 14.7095 13.081 14.854 12.4245 14.884C11.792 14.913 11.602 14.919 10 14.919C8.398 14.919 8.208 14.913 7.5755 14.884C6.93 14.8545 6.241 14.6985 5.7715 14.2285C5.293 13.75 5.146 13.0765 5.116 12.4245C5.087 11.792 5.081 11.602 5.081 10C5.081 8.398 5.087 8.208 5.116 7.5755C5.1455 6.9275 5.2995 6.2435 5.7715 5.7715C6.2515 5.2915 6.921 5.146 7.5755 5.116C8.208 5.087 8.398 5.081 10 5.081ZM10 4C8.3705 4 8.166 4.007 7.526 4.036C6.5985 4.0785 5.6775 4.3365 5.007 5.007C4.334 5.68 4.0785 6.599 4.036 7.526C4.007 8.166 4 8.3705 4 10C4 11.6295 4.007 11.834 4.036 12.474C4.0785 13.4005 4.3375 14.324 5.007 14.993C5.6795 15.6655 6.6 15.9215 7.526 15.964C8.166 15.993 8.3705 16 10 16C11.6295 16 11.834 15.993 12.474 15.964C13.401 15.9215 14.323 15.663 14.993 14.993C15.6665 14.3195 15.9215 13.401 15.964 12.474C15.993 11.834 16 11.6295 16 10C16 8.3705 15.993 8.166 15.964 7.526C15.9215 6.5985 15.663 5.677 14.993 5.007C14.3215 4.3355 13.3985 4.078 12.474 4.036C11.834 4.007 11.6295 4 10 4Z" fill="#1D1D1D"/>
<path d="M10 6.91895C8.29851 6.91895 6.91901 8.29845 6.91901 9.99995C6.91901 11.7014 8.29851 13.0809 10 13.0809C11.7015 13.0809 13.081 11.7014 13.081 9.99995C13.081 8.29845 11.7015 6.91895 10 6.91895ZM10 11.9999C8.89551 11.9999 8.00001 11.1044 8.00001 9.99995C8.00001 8.89545 8.89551 7.99995 10 7.99995C11.1045 7.99995 12 8.89545 12 9.99995C12 11.1044 11.1045 11.9999 10 11.9999Z" fill="#1D1D1D"/>
<path d="M13.203 7.51666C13.6006 7.51666 13.923 7.19431 13.923 6.79666C13.923 6.39902 13.6006 6.07666 13.203 6.07666C12.8053 6.07666 12.483 6.39902 12.483 6.79666C12.483 7.19431 12.8053 7.51666 13.203 7.51666Z" fill="#1D1D1D"/>
</svg>
