<svg width="50" height="50" viewBox="0 0 50 50" fill="none" xmlns="http://www.w3.org/2000/svg">
<path d="M50 25C50 11.1929 38.8071 0 25 0C11.1929 0 0 11.1929 0 25C0 38.8071 11.1929 50 25 50C38.8071 50 50 38.8071 50 25Z" fill="white"/>
<path fill-rule="evenodd" clip-rule="evenodd" d="M31.6909 16.3964L16.3964 31.6909C15.8682 32.2191 15.8682 33.0753 16.3964 33.6034C16.9245 34.1316 17.7807 34.1316 18.3089 33.6034L33.6034 18.3089C34.1316 17.7807 34.1316 16.9245 33.6034 16.3964C33.0753 15.8682 32.2191 15.8682 31.6909 16.3964Z" fill="black"/>
<path fill-rule="evenodd" clip-rule="evenodd" d="M33.9999 28.4502V17.3519C33.9999 16.6057 33.3943 16 32.648 16H21.5498C20.8035 16 20.1979 16.6057 20.1979 17.3519C20.1979 18.0982 20.8035 18.7038 21.5498 18.7038H31.2961V28.4502C31.2961 29.1964 31.9018 29.8021 32.648 29.8021C33.3943 29.8021 33.9999 29.1964 33.9999 28.4502Z" fill="black"/>
</svg>
