<svg width="80" height="80" viewBox="0 0 80 80" fill="none" xmlns="http://www.w3.org/2000/svg">
<path fill-rule="evenodd" clip-rule="evenodd" d="M62.5 26.6667C62.5 21.6033 58.3967 17.5 53.3333 17.5H26.6667C21.6033 17.5 17.5 21.6033 17.5 26.6667V53.3333C17.5 58.3967 21.6033 62.5 26.6667 62.5H53.3333C58.3967 62.5 62.5 58.3967 62.5 53.3333V26.6667ZM46.6667 33.3333V46.6667C46.6667 48.0467 47.7867 49.1667 49.1667 49.1667C50.5467 49.1667 51.6667 48.0467 51.6667 46.6667V33.3333C51.6667 31.9533 50.5467 30.8333 49.1667 30.8333C47.7867 30.8333 46.6667 31.9533 46.6667 33.3333ZM43.3333 46.6667V36.6667C43.3333 33.4467 40.7233 30.8333 37.5 30.8333H34.1667C30.9433 30.8333 28.3333 33.4467 28.3333 36.6667V46.6667C28.3333 48.0467 29.4533 49.1667 30.8333 49.1667C32.2133 49.1667 33.3333 48.0467 33.3333 46.6667V44.1667H38.3333V46.6667C38.3333 48.0467 39.4533 49.1667 40.8333 49.1667C42.2133 49.1667 43.3333 48.0467 43.3333 46.6667ZM33.3333 39.1667H38.3333V36.6667C38.3333 36.2067 37.96 35.8333 37.5 35.8333H34.1667C33.7067 35.8333 33.3333 36.2067 33.3333 36.6667V39.1667Z" fill="#A1F480"/>
<path fill-rule="evenodd" clip-rule="evenodd" d="M60 42.5H73.3333C74.7133 42.5 75.8333 41.38 75.8333 40C75.8333 38.62 74.7133 37.5 73.3333 37.5H60C58.62 37.5 57.5 38.62 57.5 40C57.5 41.38 58.62 42.5 60 42.5Z" fill="#A1F480"/>
<path fill-rule="evenodd" clip-rule="evenodd" d="M42.5 20V6.66663C42.5 5.28663 41.38 4.16663 40 4.16663C38.62 4.16663 37.5 5.28663 37.5 6.66663V20C37.5 21.38 38.62 22.5 40 22.5C41.38 22.5 42.5 21.38 42.5 20Z" fill="#A1F480"/>
<path fill-rule="evenodd" clip-rule="evenodd" d="M37.5 60V73.3333C37.5 74.7133 38.62 75.8333 40 75.8333C41.38 75.8333 42.5 74.7133 42.5 73.3333V60C42.5 58.62 41.38 57.5 40 57.5C38.62 57.5 37.5 58.62 37.5 60Z" fill="#A1F480"/>
<path fill-rule="evenodd" clip-rule="evenodd" d="M20 37.5H6.66663C5.28663 37.5 4.16663 38.62 4.16663 40C4.16663 41.38 5.28663 42.5 6.66663 42.5H20C21.38 42.5 22.5 41.38 22.5 40C22.5 38.62 21.38 37.5 20 37.5Z" fill="#A1F480"/>
<path fill-rule="evenodd" clip-rule="evenodd" d="M60 32.5H68.3333C69.7133 32.5 70.8333 31.38 70.8333 30C70.8333 28.62 69.7133 27.5 68.3333 27.5H60C58.62 27.5 57.5 28.62 57.5 30C57.5 31.38 58.62 32.5 60 32.5Z" fill="#A1F480"/>
<path fill-rule="evenodd" clip-rule="evenodd" d="M32.5 20V11.6666C32.5 10.2866 31.38 9.16663 30 9.16663C28.62 9.16663 27.5 10.2866 27.5 11.6666V20C27.5 21.38 28.62 22.5 30 22.5C31.38 22.5 32.5 21.38 32.5 20Z" fill="#A1F480"/>
<path fill-rule="evenodd" clip-rule="evenodd" d="M27.5 60V68.3333C27.5 69.7133 28.62 70.8333 30 70.8333C31.38 70.8333 32.5 69.7133 32.5 68.3333V60C32.5 58.62 31.38 57.5 30 57.5C28.62 57.5 27.5 58.62 27.5 60Z" fill="#A1F480"/>
<path fill-rule="evenodd" clip-rule="evenodd" d="M20 27.5H11.6666C10.2866 27.5 9.16663 28.62 9.16663 30C9.16663 31.38 10.2866 32.5 11.6666 32.5H20C21.38 32.5 22.5 31.38 22.5 30C22.5 28.62 21.38 27.5 20 27.5Z" fill="#A1F480"/>
<path fill-rule="evenodd" clip-rule="evenodd" d="M60 52.5H68.3333C69.7133 52.5 70.8333 51.38 70.8333 50C70.8333 48.62 69.7133 47.5 68.3333 47.5H60C58.62 47.5 57.5 48.62 57.5 50C57.5 51.38 58.62 52.5 60 52.5Z" fill="#A1F480"/>
<path fill-rule="evenodd" clip-rule="evenodd" d="M52.5 20V11.6666C52.5 10.2866 51.38 9.16663 50 9.16663C48.62 9.16663 47.5 10.2866 47.5 11.6666V20C47.5 21.38 48.62 22.5 50 22.5C51.38 22.5 52.5 21.38 52.5 20Z" fill="#A1F480"/>
<path fill-rule="evenodd" clip-rule="evenodd" d="M47.5 60V68.3333C47.5 69.7133 48.62 70.8333 50 70.8333C51.38 70.8333 52.5 69.7133 52.5 68.3333V60C52.5 58.62 51.38 57.5 50 57.5C48.62 57.5 47.5 58.62 47.5 60Z" fill="#A1F480"/>
<path fill-rule="evenodd" clip-rule="evenodd" d="M20 47.5H11.6666C10.2866 47.5 9.16663 48.62 9.16663 50C9.16663 51.38 10.2866 52.5 11.6666 52.5H20C21.38 52.5 22.5 51.38 22.5 50C22.5 48.62 21.38 47.5 20 47.5Z" fill="#A1F480"/>
</svg>
