<svg width="60" height="60" viewBox="0 0 60 60" fill="none" xmlns="http://www.w3.org/2000/svg">
<path fill-rule="evenodd" clip-rule="evenodd" d="M0.625 47.5V12.5C0.625 7.3225 4.8225 3.125 10 3.125H50C55.1775 3.125 59.375 7.3225 59.375 12.5V47.5C59.375 52.6775 55.1775 56.875 50 56.875H10C7.5125 56.875 5.13 55.8875 3.37 54.13C1.6125 52.37 0.625 49.9875 0.625 47.5ZM4.375 21.875V47.5C4.375 48.9925 4.9675 50.4225 6.0225 51.4775C7.0775 52.5325 8.5075 53.125 10 53.125H50C53.1075 53.125 55.625 50.6075 55.625 47.5V21.875H4.375ZM27.5 10C26.12 10 25 11.12 25 12.5C25 13.88 26.12 15 27.5 15C28.88 15 30 13.88 30 12.5C30 11.12 28.88 10 27.5 10ZM20 10C18.62 10 17.5 11.12 17.5 12.5C17.5 13.88 18.62 15 20 15C21.38 15 22.5 13.88 22.5 12.5C22.5 11.12 21.38 10 20 10ZM12.5 10C11.12 10 10 11.12 10 12.5C10 13.88 11.12 15 12.5 15C13.88 15 15 13.88 15 12.5C15 11.12 13.88 10 12.5 10Z" fill="black"/>
<path fill-rule="evenodd" clip-rule="evenodd" d="M21.875 40.625C22.5375 40.625 23.175 40.3625 23.6425 39.8925C24.1125 39.425 24.375 38.7875 24.375 38.125V32.5C24.375 31.465 25.215 30.625 26.25 30.625C27.285 30.625 28.125 31.465 28.125 32.5V38.125C28.125 39.7825 27.4675 41.3725 26.295 42.545C25.1225 43.7175 23.5325 44.375 21.875 44.375C20.2175 44.375 18.6275 43.7175 17.455 42.545C16.2825 41.3725 15.625 39.7825 15.625 38.125V32.5C15.625 31.465 16.465 30.625 17.5 30.625C18.535 30.625 19.375 31.465 19.375 32.5V38.125C19.375 38.7875 19.6375 39.425 20.1075 39.8925C20.575 40.3625 21.2125 40.625 21.875 40.625Z" fill="black"/>
<path fill-rule="evenodd" clip-rule="evenodd" d="M31.175 33.825C30.4425 33.095 30.4425 31.905 31.175 31.175C31.905 30.4425 33.095 30.4425 33.825 31.175L43.825 41.175C44.5575 41.905 44.5575 43.095 43.825 43.825C43.095 44.5575 41.905 44.5575 41.175 43.825L31.175 33.825Z" fill="black"/>
<path fill-rule="evenodd" clip-rule="evenodd" d="M41.175 31.175C41.905 30.4425 43.095 30.4425 43.825 31.175C44.5575 31.905 44.5575 33.095 43.825 33.825L33.825 43.825C33.095 44.5575 31.905 44.5575 31.175 43.825C30.4425 43.095 30.4425 41.905 31.175 41.175L41.175 31.175Z" fill="black"/>
</svg>
