<svg width="20" height="20" viewBox="0 0 20 20" fill="none" xmlns="http://www.w3.org/2000/svg">
<g clip-path="url(#clip0_82_25)">
<path d="M19.1683 17.9868H19.3575L18.995 17.4385C19.2167 17.4385 19.3342 17.2977 19.3358 17.1252C19.3358 17.1185 19.3358 17.111 19.335 17.1043C19.335 16.8693 19.1933 16.7568 18.9025 16.7568H18.4325V17.9868H18.6092V17.451H18.8267L19.1683 17.9868ZM18.8142 17.3118H18.6092V16.896H18.8692C19.0033 16.896 19.1567 16.9177 19.1567 17.0935C19.1567 17.2952 19.0025 17.3118 18.8142 17.3118Z" fill="#A1F480"/>
<path d="M14.4092 15.8941H11.9033V11.97C11.9033 11.0341 11.8867 9.82998 10.6 9.82998C9.295 9.82998 9.095 10.8491 9.095 11.9025V15.8941H6.59V7.82414H8.99583V8.92664H9.02917C9.52 8.08831 10.4317 7.58748 11.4025 7.62331C13.9425 7.62331 14.41 9.29414 14.41 11.4666L14.4092 15.8941ZM3.7625 6.72081C2.95917 6.72081 2.30833 6.06998 2.30833 5.26664C2.30833 4.46331 2.95917 3.81248 3.7625 3.81248C4.56583 3.81248 5.21667 4.46331 5.21667 5.26664C5.21667 6.06998 4.56583 6.72081 3.7625 6.72081ZM5.015 15.8941H2.50667V7.82414H5.015V15.8941ZM15.6583 1.48581H1.2475C0.566667 1.47831 0.00833333 2.02414 0 2.70498V17.175C0.00833333 17.8566 0.566667 18.4025 1.2475 18.395H15.6583C16.3408 18.4033 16.9017 17.8575 16.9108 17.175V2.70414C16.9008 2.02164 16.34 1.47581 15.6583 1.48498" fill="#A1F480"/>
<path d="M18.8358 16.209C18.1992 16.2148 17.6875 16.7365 17.6942 17.3732C17.7 18.0098 18.2217 18.5215 18.8583 18.5148C19.495 18.509 20.0067 17.9873 20 17.3507C19.9942 16.7223 19.4858 16.2148 18.8583 16.209H18.8358ZM18.8625 18.3823C18.3042 18.3915 17.8175 17.9473 17.8083 17.389C17.7992 16.8307 18.2442 16.3707 18.8025 16.3615C19.3608 16.3523 19.8208 16.7973 19.83 17.3557C19.83 17.3615 19.83 17.3665 19.83 17.3723C19.8417 17.9182 19.4083 18.3707 18.8625 18.3823H18.8367H18.8625Z" fill="#A1F480"/>
</g>
<defs>
<clipPath id="clip0_82_25">
<rect width="20" height="20" fill="white"/>
</clipPath>
</defs>
</svg>
