<svg width="50" height="50" viewBox="0 0 50 50" fill="none" xmlns="http://www.w3.org/2000/svg">
<g clip-path="url(#clip0_49_371)">
<path fill-rule="evenodd" clip-rule="evenodd" d="M25 0C18.3696 0 12.0107 2.63392 7.32233 7.32233C2.63392 12.0107 0 18.3696 0 25C0 31.6304 2.63392 37.9893 7.32233 42.6777C12.0107 47.3661 18.3696 50 25 50C31.6304 50 37.9893 47.3661 42.6777 42.6777C47.3661 37.9893 50 31.6304 50 25C50 18.3696 47.3661 12.0107 42.6777 7.32233C37.9893 2.63392 31.6304 0 25 0ZM23 16L32 24.996L22.012 35.1728C21.6253 35.5668 20.9924 35.5731 20.5979 35.1869C20.2027 34.7999 20.1963 34.1657 20.5838 33.771L29.196 24.996L20.5661 16.2105C20.1874 15.8249 20.1934 15.2052 20.5796 14.8271C20.9776 14.4374 21.6202 14.4586 21.9917 14.8736L23 16Z" fill="#1D1D1D"/>
</g>
<defs>
<clipPath id="clip0_49_371">
<rect width="50" height="50" fill="white"/>
</clipPath>
</defs>
</svg>
